<svg width="16" height="20" viewBox="0 0 16 20" fill="none" xmlns="http://www.w3.org/2000/svg">
<path d="M7.60473 9.78139C9.8284 9.78139 11.6312 7.59177 11.6312 4.89072C11.6312 2.18962 11.0393 0 7.60473 0C4.17013 0 3.57812 2.18962 3.57812 4.89072C3.57812 7.59177 5.38094 9.78139 7.60473 9.78139Z" fill="#191847"/>
<path d="M15.2109 17.3776C15.2131 17.3325 15.2117 17.0648 15.2109 17.3776V17.3776Z" fill="#191847"/>
<path d="M15.2017 17.051C15.1271 12.3457 14.5126 11.0049 9.81007 10.1562C9.81007 10.1562 9.14812 10.9997 7.60526 10.9997C6.06239 10.9997 5.40033 10.1562 5.40033 10.1562C0.749148 10.9957 0.0972578 12.3166 0.0115429 16.8981C0.0045143 17.2723 0.00125715 17.2919 0 17.2485C0.000285716 17.3299 0.000628449 17.4804 0.000628449 17.7428C0.000628449 17.7428 1.12018 19.9998 7.60526 19.9998C14.0902 19.9998 15.2099 17.7428 15.2099 17.7428C15.2099 17.5742 15.21 17.4569 15.2102 17.3772C15.2089 17.404 15.2064 17.352 15.2017 17.051Z" fill="#191847"/>
</svg>
