<svg width="15" height="20" viewBox="0 0 15 20" fill="none" xmlns="http://www.w3.org/2000/svg">
<path d="M10 6.25C9.31125 6.25 8.75 5.68875 8.75 5V0H1.25C0.56125 0 0 0.56125 0 1.25V18.75C0 19.44 0.56125 20 1.25 20H13.75C14.44 20 15 19.44 15 18.75V6.25H10ZM4.375 3.8275V3.125C4.375 2.78 4.655 2.5 5 2.5C5.345 2.5 5.625 2.78 5.625 3.125V3.82875C6.01625 3.9175 6.38125 4.0825 6.6825 4.3275C6.95125 4.545 6.99125 4.93875 6.7725 5.20625C6.55375 5.475 6.16 5.51375 5.89375 5.29625C5.6575 5.105 5.34 5 5 5C4.3225 5 3.75 5.42875 3.75 5.9375C3.75 6.44625 4.3225 6.875 5 6.875C6.37875 6.875 7.5 7.85625 7.5 9.0625C7.5 10.0787 6.7 10.9275 5.625 11.1725V11.875C5.625 12.22 5.345 12.5 5 12.5C4.655 12.5 4.375 12.22 4.375 11.875V11.1713C3.98375 11.0825 3.61875 10.9175 3.3175 10.6725C3.04875 10.4538 3.00875 10.06 3.2275 9.7925C3.44625 9.5225 3.83875 9.485 4.10625 9.7025C4.3425 9.895 4.66 10 5 10C5.6775 10 6.25 9.57125 6.25 9.0625C6.25 8.55375 5.6775 8.125 5 8.125C3.62125 8.125 2.5 7.14375 2.5 5.9375C2.5 4.92125 3.3 4.0725 4.375 3.8275ZM11.875 17.5H3.125C2.78 17.5 2.5 17.22 2.5 16.875C2.5 16.53 2.78 16.25 3.125 16.25H11.875C12.22 16.25 12.5 16.53 12.5 16.875C12.5 17.22 12.22 17.5 11.875 17.5ZM11.875 15H3.125C2.78 15 2.5 14.72 2.5 14.375C2.5 14.03 2.78 13.75 3.125 13.75H11.875C12.22 13.75 12.5 14.03 12.5 14.375C12.5 14.72 12.22 15 11.875 15ZM11.875 12.5H9.375C9.03 12.5 8.75 12.22 8.75 11.875C8.75 11.53 9.03 11.25 9.375 11.25H11.875C12.22 11.25 12.5 11.53 12.5 11.875C12.5 12.22 12.22 12.5 11.875 12.5ZM11.875 10H9.375C9.03 10 8.75 9.72 8.75 9.375C8.75 9.03 9.03 8.75 9.375 8.75H11.875C12.22 8.75 12.5 9.02875 12.5 9.375C12.5 9.72 12.22 10 11.875 10Z" fill="#C4C4C4"/>
</svg>
