<svg width="32" height="32" viewBox="0 0 32 32" fill="none" xmlns="http://www.w3.org/2000/svg">
<g opacity="0.9">
<path d="M25.3277 9.72731H14.6887L12.5724 7.2121C12.5012 7.12652 12.3945 7.07853 12.2833 7.082H3.6998C2.38929 7.09154 1.33203 8.1566 1.33203 9.46711V24.9371C1.33362 26.2521 2.39926 27.3177 3.71425 27.3193H25.3277C26.6427 27.3177 27.7083 26.2521 27.7099 24.9371V12.1095C27.7083 10.7945 26.6427 9.7289 25.3277 9.72731Z" fill="white"/>
<path d="M28.4529 6.64548H17.8109L15.6947 4.13027C15.6235 4.0447 15.5168 3.99671 15.4056 4.00018H6.82495C5.63586 4.00213 4.63036 4.88057 4.46875 6.0586H12.2948C12.7052 6.05759 13.0948 6.23871 13.3587 6.55297L15.1656 8.70101H25.3276C27.2072 8.70419 28.7301 10.2271 28.7333 12.1067V24.2144C29.925 24.0657 30.8197 23.0533 30.8206 21.8524V9.02481C30.8175 7.71654 29.7611 6.65502 28.4529 6.64548Z" fill="white"/>
</g>
</svg>
