<svg width="32" height="32" viewBox="0 0 32 32" fill="none" xmlns="http://www.w3.org/2000/svg">
<rect width="32" height="32" rx="8" fill="#F06E3A" fill-opacity="0.09"/>
<g opacity="0.9">
<path d="M21.329 12.4156H15.2495L14.0403 10.9783C13.9996 10.9294 13.9386 10.902 13.8751 10.904H8.9702C8.22133 10.9095 7.61719 11.5181 7.61719 12.2669V21.1069C7.6181 21.8583 8.22703 22.4673 8.97846 22.4682H21.329C22.0804 22.4673 22.6894 21.8583 22.6903 21.1069V13.7769C22.6894 13.0254 22.0804 12.4165 21.329 12.4156Z" fill="#F06E3A"/>
<path d="M23.1154 10.6546H17.0343L15.825 9.21729C15.7843 9.16839 15.7233 9.14097 15.6598 9.14295H10.7566C10.0771 9.14407 9.5025 9.64604 9.41016 10.3192H13.8822C14.1167 10.3186 14.3393 10.4221 14.4901 10.6017L15.5227 11.8291H21.3295C22.4035 11.831 23.2738 12.7012 23.2756 13.7752V20.6939C23.9566 20.609 24.4678 20.0305 24.4684 19.3442V12.0142C24.4666 11.2666 23.8629 10.66 23.1154 10.6546Z" fill="#F06E3A"/>
</g>
</svg>
