<svg width="93" height="93" viewBox="0 0 93 93" fill="none" xmlns="http://www.w3.org/2000/svg">
<rect x="11" y="29" width="64" height="64" rx="5.33333" fill="#DAE4FB"/>
<rect x="29" y="12" width="64" height="64" rx="5.33333" fill="#DAE4FB"/>
<rect width="87" height="87" rx="7.25" fill="#E7EDFC"/>
<path d="M59 61H58V46.5H57V61H53.5V62H59.5C59.6326 62 59.7598 61.9473 59.8536 61.8536C59.9473 61.7598 60 61.6326 60 61.5V44.5H59V61Z" fill="#96ACE1"/>
<path d="M56 57.5V48.5H55V57H51.5C51.3674 57 51.2402 57.0527 51.1464 57.1464C51.0527 57.2402 51 57.3674 51 57.5V61H34.5V58.5H36V57.5H34.5V54H36V53H34.5V49.5H36V48.5H34.5V45H36V44H34.5V40.5H36V39.5H34.5V37H33.5V39.5H32V40.5H33.5V44H32V45H33.5V48.5H32V49.5H33.5V53H32V54H33.5V57.5H32V58.5H33.5V61.5C33.5 61.6326 33.5527 61.7598 33.6464 61.8536C33.7402 61.9473 33.8674 62 34 62H51.5C51.5657 62 51.6307 61.9871 51.6913 61.9619C51.752 61.9368 51.8071 61.9 51.8536 61.8536L55.8536 57.8536C55.9 57.8071 55.9368 57.752 55.9619 57.6913C55.9871 57.6307 56 57.5657 56 57.5ZM54.2929 58L52 60.2929V58H54.2929Z" fill="#96ACE1"/>
<path d="M36 35H34.5V33H55V37H56V33H57V36H58V33H59V36H60V32.5C60 32.3674 59.9473 32.2402 59.8536 32.1464C59.7598 32.0527 59.6326 32 59.5 32H34C33.8674 32 33.7402 32.0527 33.6464 32.1464C33.5527 32.2402 33.5 32.3674 33.5 32.5V35H32V36H36V35Z" fill="#96ACE1"/>
<path d="M42.5 37H52.5V38H42.5V37Z" fill="#96ACE1"/>
<path d="M42.5 41H51.5V42H42.5V41Z" fill="#96ACE1"/>
<path d="M42.5 45H49.5V46H42.5V45Z" fill="#96ACE1"/>
<path d="M39.5 48C39.2033 48 38.9133 48.088 38.6666 48.2528C38.42 48.4176 38.2277 48.6519 38.1142 48.926C38.0006 49.2001 37.9709 49.5017 38.0288 49.7926C38.0867 50.0836 38.2296 50.3509 38.4393 50.5607C38.6491 50.7704 38.9164 50.9133 39.2074 50.9712C39.4983 51.0291 39.7999 50.9993 40.074 50.8858C40.3481 50.7723 40.5824 50.58 40.7472 50.3334C40.912 50.0867 41 49.7967 41 49.5C40.9996 49.1023 40.8414 48.721 40.5602 48.4398C40.279 48.1586 39.8977 48.0004 39.5 48ZM39.5 50C39.4011 50 39.3044 49.9707 39.2222 49.9157C39.14 49.8608 39.0759 49.7827 39.0381 49.6913C39.0002 49.6 38.9903 49.4994 39.0096 49.4025C39.0289 49.3055 39.0765 49.2164 39.1464 49.1464C39.2164 49.0765 39.3055 49.0289 39.4025 49.0096C39.4994 48.9903 39.6 49.0002 39.6913 49.0381C39.7827 49.0759 39.8608 49.14 39.9157 49.2222C39.9707 49.3044 40 49.4011 40 49.5C39.9999 49.6326 39.9471 49.7597 39.8534 49.8534C39.7597 49.9471 39.6326 49.9999 39.5 50Z" fill="#96ACE1"/>
<path d="M42.5 49H47V50H42.5V49Z" fill="#96ACE1"/>
<path d="M39.5 52C39.2033 52 38.9133 52.088 38.6666 52.2528C38.42 52.4176 38.2277 52.6519 38.1142 52.926C38.0006 53.2001 37.9709 53.5017 38.0288 53.7926C38.0867 54.0836 38.2296 54.3509 38.4393 54.5607C38.6491 54.7704 38.9164 54.9133 39.2074 54.9712C39.4983 55.0291 39.7999 54.9993 40.074 54.8858C40.3481 54.7723 40.5824 54.58 40.7472 54.3334C40.912 54.0867 41 53.7967 41 53.5C40.9996 53.1023 40.8414 52.721 40.5602 52.4398C40.279 52.1586 39.8977 52.0004 39.5 52ZM39.5 54C39.4011 54 39.3044 53.9707 39.2222 53.9157C39.14 53.8608 39.0759 53.7827 39.0381 53.6913C39.0002 53.6 38.9903 53.4994 39.0096 53.4025C39.0289 53.3055 39.0765 53.2164 39.1464 53.1464C39.2164 53.0765 39.3055 53.0289 39.4025 53.0096C39.4994 52.9903 39.6 53.0002 39.6913 53.0381C39.7827 53.0759 39.8608 53.14 39.9157 53.2222C39.9707 53.3044 40 53.4011 40 53.5C39.9999 53.6326 39.9471 53.7597 39.8534 53.8534C39.7597 53.9471 39.6326 53.9999 39.5 54Z" fill="#96ACE1"/>
<path d="M42.5 53H52.5V54H42.5V53Z" fill="#96ACE1"/>
<path d="M39.5 56C39.2033 56 38.9133 56.088 38.6666 56.2528C38.42 56.4176 38.2277 56.6519 38.1142 56.926C38.0006 57.2001 37.9709 57.5017 38.0288 57.7926C38.0867 58.0836 38.2296 58.3509 38.4393 58.5607C38.6491 58.7704 38.9164 58.9133 39.2074 58.9712C39.4983 59.0291 39.7999 58.9993 40.074 58.8858C40.3481 58.7723 40.5824 58.58 40.7472 58.3334C40.912 58.0867 41 57.7967 41 57.5C40.9996 57.1023 40.8414 56.721 40.5602 56.4398C40.279 56.1586 39.8977 56.0004 39.5 56ZM39.5 58C39.4011 58 39.3044 57.9707 39.2222 57.9157C39.14 57.8608 39.0759 57.7827 39.0381 57.6913C39.0002 57.6 38.9903 57.4994 39.0096 57.4025C39.0289 57.3055 39.0765 57.2164 39.1464 57.1464C39.2164 57.0765 39.3055 57.0289 39.4025 57.0096C39.4994 56.9903 39.6 57.0002 39.6913 57.0381C39.7827 57.0759 39.8608 57.14 39.9157 57.2222C39.9707 57.3044 40 57.4011 40 57.5C39.9999 57.6326 39.9471 57.7597 39.8534 57.8534C39.7597 57.9471 39.6326 57.9999 39.5 58Z" fill="#96ACE1"/>
<path d="M42.5 57H50V58H42.5V57Z" fill="#96ACE1"/>
<path d="M41.1473 35.1464L40.1473 36.1464C39.8279 35.9939 39.4649 35.9591 39.1223 36.0483C38.7798 36.1375 38.4798 36.345 38.2754 36.634C38.071 36.923 37.9754 37.275 38.0054 37.6277C38.0354 37.9804 38.1892 38.3111 38.4395 38.5614C38.6898 38.8117 39.0205 38.9654 39.3732 38.9955C39.7259 39.0255 40.0779 38.9299 40.3669 38.7255C40.6559 38.5211 40.8633 38.2211 40.9526 37.8786C41.0418 37.536 41.007 37.173 40.8544 36.8536L41.8544 35.8536L41.1473 35.1464ZM39.0009 37.5C39.0008 37.4343 39.0137 37.3693 39.0389 37.3087C39.0641 37.248 39.101 37.193 39.1475 37.1466L39.8542 37.8534C39.7843 37.9232 39.6953 37.9708 39.5983 37.9901C39.5014 38.0093 39.4009 37.9994 39.3096 37.9616C39.2183 37.9238 39.1402 37.8598 39.0853 37.7776C39.0303 37.6954 39.0009 37.5988 39.0009 37.5Z" fill="#96ACE1"/>
<path d="M41.1473 39.1464L40.1473 40.1464C39.8279 39.9939 39.4649 39.9591 39.1223 40.0483C38.7798 40.1375 38.4798 40.345 38.2754 40.634C38.071 40.923 37.9754 41.275 38.0054 41.6277C38.0354 41.9804 38.1892 42.3111 38.4395 42.5614C38.6898 42.8117 39.0205 42.9654 39.3732 42.9955C39.7259 43.0255 40.0779 42.9299 40.3669 42.7255C40.6559 42.5211 40.8633 42.2211 40.9526 41.8786C41.0418 41.536 41.007 41.173 40.8544 40.8536L41.8544 39.8536L41.1473 39.1464ZM39.0009 41.5C39.0008 41.4343 39.0137 41.3693 39.0389 41.3087C39.0641 41.248 39.101 41.193 39.1475 41.1466L39.8542 41.8534C39.7843 41.9232 39.6953 41.9708 39.5983 41.9901C39.5014 42.0093 39.4009 41.9994 39.3096 41.9616C39.2183 41.9238 39.1402 41.8598 39.0853 41.7776C39.0303 41.6954 39.0009 41.5988 39.0009 41.5Z" fill="#96ACE1"/>
<path d="M41.1473 43.1464L40.1473 44.1464C39.8279 43.9939 39.4649 43.9591 39.1223 44.0483C38.7798 44.1375 38.4798 44.345 38.2754 44.634C38.071 44.923 37.9754 45.275 38.0054 45.6277C38.0354 45.9804 38.1892 46.3111 38.4395 46.5614C38.6898 46.8117 39.0205 46.9654 39.3732 46.9955C39.7259 47.0255 40.0779 46.9299 40.3669 46.7255C40.6559 46.5211 40.8633 46.2211 40.9526 45.8786C41.0418 45.536 41.007 45.173 40.8544 44.8536L41.8544 43.8536L41.1473 43.1464ZM39.0009 45.5C39.0008 45.4343 39.0137 45.3693 39.0389 45.3087C39.0641 45.248 39.101 45.193 39.1475 45.1466L39.8542 45.8534C39.7843 45.9232 39.6953 45.9708 39.5983 45.9901C39.5014 46.0093 39.4009 45.9994 39.3096 45.9616C39.2183 45.9238 39.1402 45.8598 39.0853 45.7776C39.0303 45.6954 39.0009 45.5988 39.0009 45.5Z" fill="#96ACE1"/>
<path d="M60.0852 37.5C59.8337 37.4993 59.5846 37.5485 59.3522 37.6448C59.1199 37.741 58.9089 37.8823 58.7316 38.0606L58.4993 38.2929L58.06 37.8535C57.7787 37.5722 57.3971 37.4142 56.9993 37.4142C56.6015 37.4142 56.22 37.5722 55.9387 37.8535L52.6458 41.1464L53.3529 41.8536L56.6458 38.5607C56.7396 38.4671 56.8668 38.4145 56.9993 38.4145C57.1319 38.4145 57.2591 38.4671 57.3529 38.5607L57.7922 39L48.1458 48.6464C48.0759 48.7162 48.0283 48.8051 48.0091 48.9019V48.9036V48.9052L47.5097 51.4019C47.4936 51.4827 47.4976 51.5661 47.5214 51.6449C47.5453 51.7237 47.5882 51.7954 47.6464 51.8536C47.7047 51.9118 47.7763 51.9547 47.8551 51.9786C47.9339 52.0024 48.0174 52.0065 48.0981 51.9903L50.5981 51.4903C50.6949 51.4709 50.7838 51.4234 50.8536 51.3536L61.4387 40.7678C61.7064 40.5001 61.8887 40.159 61.9625 39.7877C62.0364 39.4164 61.9985 39.0315 61.8536 38.6817C61.7088 38.3319 61.4634 38.033 61.1486 37.8226C60.8338 37.6123 60.4637 37.5 60.0852 37.5ZM58.4993 39.7071L59.7922 41L56.7493 44.0429L55.4565 42.75L58.4993 39.7071ZM48.8064 50.0142L49.4852 50.6929L48.6368 50.8625L48.8064 50.0142ZM50.4993 50.2929L49.2064 49L54.7493 43.4571L56.0422 44.75L50.4993 50.2929ZM60.7316 40.0606L60.4993 40.2929L59.2065 39L59.4387 38.7678C59.6106 38.5985 59.8424 38.504 60.0836 38.5049C60.3249 38.5059 60.556 38.6021 60.7266 38.7727C60.8972 38.9433 60.9934 39.1744 60.9944 39.4156C60.9953 39.6569 60.9009 39.8887 60.7316 40.0606Z" fill="#96ACE1"/>
</svg>
