<svg width="34" height="34" viewBox="0 0 34 34" fill="none" xmlns="http://www.w3.org/2000/svg">
<g filter="url(#filter0_d)">
<circle cx="17" cy="15" r="12" fill="white"/>
</g>
<path d="M17.0013 11.6667C17.7377 11.6667 18.3346 11.0697 18.3346 10.3333C18.3346 9.59695 17.7377 9 17.0013 9C16.2649 9 15.668 9.59695 15.668 10.3333C15.668 11.0697 16.2649 11.6667 17.0013 11.6667Z" fill="#443DF6"/>
<path d="M17.0013 16.3333C17.7377 16.3333 18.3346 15.7364 18.3346 15C18.3346 14.2636 17.7377 13.6667 17.0013 13.6667C16.2649 13.6667 15.668 14.2636 15.668 15C15.668 15.7364 16.2649 16.3333 17.0013 16.3333Z" fill="#443DF6"/>
<path d="M17.0013 21C17.7377 21 18.3346 20.403 18.3346 19.6667C18.3346 18.9303 17.7377 18.3333 17.0013 18.3333C16.2649 18.3333 15.668 18.9303 15.668 19.6667C15.668 20.403 16.2649 21 17.0013 21Z" fill="#443DF6"/>
<defs>
<filter id="filter0_d" x="0" y="0" width="34" height="34" filterUnits="userSpaceOnUse" color-interpolation-filters="sRGB">
<feFlood flood-opacity="0" result="BackgroundImageFix"/>
<feColorMatrix in="SourceAlpha" type="matrix" values="0 0 0 0 0 0 0 0 0 0 0 0 0 0 0 0 0 0 127 0"/>
<feOffset dy="2"/>
<feGaussianBlur stdDeviation="2.5"/>
<feColorMatrix type="matrix" values="0 0 0 0 0 0 0 0 0 0 0 0 0 0 0 0 0 0 0.05 0"/>
<feBlend mode="normal" in2="BackgroundImageFix" result="effect1_dropShadow"/>
<feBlend mode="normal" in="SourceGraphic" in2="effect1_dropShadow" result="shape"/>
</filter>
</defs>
</svg>
