<svg width="18" height="16" viewBox="0 0 18 16" fill="none" xmlns="http://www.w3.org/2000/svg">
<path d="M12.746 0.991455C11.1337 0.991455 9.75599 2.14069 8.99906 2.93299C8.24214 2.14069 6.86752 0.991455 5.25599 0.991455C2.47829 0.991455 0.539062 2.92761 0.539062 5.69915C0.539062 8.75299 2.94752 10.7268 5.27752 12.6361C6.37752 13.5384 7.51599 14.4707 8.38906 15.5045C8.53599 15.6776 8.75137 15.7776 8.97752 15.7776H9.02214C9.24906 15.7776 9.46368 15.6768 9.60983 15.5045C10.4844 14.4707 11.6221 13.5376 12.7229 12.6361C15.0521 10.7276 17.4621 8.75376 17.4621 5.69915C17.4621 2.92761 15.5229 0.991455 12.746 0.991455Z" fill="#BDC4DB"/>
</svg>
