<svg width="16" height="16" viewBox="0 0 16 16" fill="none" xmlns="http://www.w3.org/2000/svg">
<path d="M12.9995 5.5C13.5072 5.50002 14.0028 5.3455 14.4204 5.057C14.8381 4.7685 15.1581 4.35969 15.3378 3.88492C15.5174 3.41016 15.5483 2.89195 15.4263 2.3992C15.3044 1.90645 15.0352 1.46251 14.6548 1.12642C14.2744 0.790328 13.8006 0.578013 13.2966 0.517707C12.7926 0.4574 12.2821 0.551961 11.8331 0.788813C11.3842 1.02567 11.0179 1.39359 10.7831 1.84365C10.5483 2.29371 10.4561 2.80458 10.5187 3.30834L4.73537 6.2C4.38223 5.85946 3.9367 5.63035 3.45428 5.54121C2.97186 5.45206 2.47387 5.50682 2.02235 5.69867C1.57084 5.89052 1.18574 6.21097 0.91504 6.62011C0.64434 7.02925 0.5 7.509 0.5 7.99959C0.5 8.49017 0.64434 8.96992 0.91504 9.37906C1.18574 9.7882 1.57084 10.1087 2.02235 10.3005C2.47387 10.4923 2.97186 10.5471 3.45428 10.458C3.9367 10.3688 4.38223 10.1397 4.73537 9.79917L10.5187 12.6908C10.4458 13.276 10.5821 13.8682 10.9035 14.3626C11.225 14.857 11.7108 15.2219 12.2753 15.3927C12.8397 15.5636 13.4463 15.5294 13.988 15.2962C14.5297 15.0631 14.9715 14.6459 15.2353 14.1185C15.4992 13.5911 15.5681 12.9874 15.4299 12.4141C15.2917 11.8408 14.9553 11.3348 14.4801 10.9855C14.0049 10.6363 13.4216 10.4663 12.8331 10.5055C12.2447 10.5447 11.6891 10.7907 11.2645 11.2L5.4812 8.30834C5.5064 8.10355 5.5064 7.89645 5.4812 7.69167L11.2645 4.8C11.7129 5.23334 12.3245 5.5 12.9995 5.5Z" fill="#BDC4DB"/>
</svg>
