<svg width="26" height="28" viewBox="0 0 26 28" fill="none" xmlns="http://www.w3.org/2000/svg">
<g clip-path="url(#clip0)">
<path d="M21.2184 21.3316L21.2182 21.3314C21.1624 21.2741 21.1022 21.2139 21.0387 21.1501C20.5814 20.692 19.9445 20.0538 19.4144 19.0292C18.8084 17.8579 18.3523 16.2112 18.3523 13.75C18.3523 10.3749 15.8746 7.64199 12.4722 6.96733L12.0695 6.88747V6.47688V5.5C12.0695 4.96923 11.612 4.5 10.999 4.5C10.3861 4.5 9.9286 4.96923 9.9286 5.5V6.47688V6.88747L9.52586 6.96733C6.12345 7.64199 3.64584 10.3749 3.64584 13.75C3.64584 16.2112 3.18974 17.8579 2.58372 19.0292C2.05364 20.0538 1.41672 20.692 0.959442 21.1501C0.895886 21.2138 0.8358 21.274 0.779954 21.3313C0.577729 21.5388 0.497508 21.7733 0.499045 21.9965L21.2184 21.3316ZM21.2184 21.3316C21.4202 21.5384 21.5006 21.7731 21.4991 21.9965L21.4991 21.9968M21.2184 21.3316L21.4991 21.9968M21.5762 20.9823C21.5173 20.9219 21.4552 20.8596 21.3905 20.7947C20.4138 19.8145 18.8523 18.2475 18.8523 13.75C18.8523 10.1078 16.1769 7.19219 12.5695 6.47688V5.5C12.5695 4.67172 11.8663 4 10.999 4C10.1318 4 9.4286 4.67172 9.4286 5.5L21.5762 20.9823ZM21.5762 20.9823C21.8709 21.2842 22.0015 21.6461 21.999 22L21.5762 20.9823ZM21.4991 21.9968C21.4958 22.4984 21.079 23 20.4227 23H1.5754C0.91937 23 0.502598 22.4987 0.499045 21.9965L21.4991 21.9968ZM13.5872 25.5C13.3438 26.6279 12.2935 27.5 10.999 27.5C9.70463 27.5 8.65434 26.6279 8.41094 25.5H13.5872Z" fill="white" stroke="white"/>
</g>
<circle cx="19.5" cy="6.5" r="6" fill="#EB5757" stroke="white"/>
<path d="M20.612 6.932H21.48V7.34C21.48 7.38267 21.4667 7.41867 21.44 7.448C21.416 7.47733 21.3773 7.492 21.324 7.492H20.612V9H19.984V7.492H17.444C17.3907 7.492 17.344 7.47733 17.304 7.448C17.2667 7.416 17.2427 7.37733 17.232 7.332L17.16 6.968L19.948 3.268H20.612V6.932ZM19.984 4.568C19.984 4.49867 19.9853 4.424 19.988 4.344C19.9933 4.264 20.0027 4.18133 20.016 4.096L17.932 6.932H19.984V4.568Z" fill="white"/>
<defs>
<clipPath id="clip0">
<rect width="22" height="24" fill="white" transform="translate(0 4)"/>
</clipPath>
</defs>
</svg>
